<?xml version="1.0" encoding="UTF-8" standalone="no"?>
<!DOCTYPE svg PUBLIC "-//W3C//DTD SVG 1.1//EN"
 "http://www.w3.org/Graphics/SVG/1.1/DTD/svg11.dtd">
<!-- Generated by graphviz version 2.47.3 (20210619.1520)
 -->
<!-- Title: dependencies Pages: 1 -->
<svg width="172pt" height="247pt"
 viewBox="0.00 0.00 172.00 246.80" xmlns="http://www.w3.org/2000/svg" xmlns:xlink="http://www.w3.org/1999/xlink">
<g id="graph0" class="graph" transform="scale(1 1) rotate(0) translate(4 242.8)">
<title>dependencies</title>
<polygon fill="white" stroke="transparent" points="-4,4 -4,-242.8 168,-242.8 168,4 -4,4"/>
<text text-anchor="middle" x="82" y="-8.2" font-family="sans-serif" font-size="14.00">dependencies</text>
<g id="clust1" class="cluster">
<title>cluster_SharedModule</title>
<polygon fill="none" stroke="black" stroke-dasharray="1,5" points="8,-32.8 8,-230.8 156,-230.8 156,-32.8 8,-32.8"/>
</g>
<g id="clust5" class="cluster">
<title>cluster_SharedModule_exports</title>
<polygon fill="none" stroke="black" points="16,-170.8 16,-222.8 148,-222.8 148,-170.8 16,-170.8"/>
</g>
<g id="clust2" class="cluster">
<title>cluster_SharedModule_declarations</title>
<polygon fill="none" stroke="black" points="17,-40.8 17,-92.8 147,-92.8 147,-40.8 17,-40.8"/>
</g>
<!-- TableComponent -->
<g id="node1" class="node">
<title>TableComponent</title>
<polygon fill="#ffffb3" stroke="black" points="138.7,-84.8 25.3,-84.8 25.3,-48.8 138.7,-48.8 138.7,-84.8"/>
<text text-anchor="middle" x="82" y="-62.6" font-family="Times,serif" font-size="14.00">TableComponent</text>
</g>
<!-- SharedModule -->
<g id="node2" class="node">
<title>SharedModule</title>
<polygon fill="#8dd3c7" stroke="black" points="131.42,-149.8 128.42,-153.8 107.42,-153.8 104.42,-149.8 32.58,-149.8 32.58,-113.8 131.42,-113.8 131.42,-149.8"/>
<text text-anchor="middle" x="82" y="-127.6" font-family="Times,serif" font-size="14.00">SharedModule</text>
</g>
<!-- TableComponent&#45;&gt;SharedModule -->
<g id="edge1" class="edge">
<title>TableComponent&#45;&gt;SharedModule</title>
<path fill="none" stroke="black" d="M82,-84.91C82,-84.91 82,-103.79 82,-103.79"/>
<polygon fill="black" stroke="black" points="78.5,-103.79 82,-113.79 85.5,-103.79 78.5,-103.79"/>
</g>
<!-- TableComponent  -->
<g id="node3" class="node">
<title>TableComponent </title>
<polygon fill="#fb8072" stroke="black" points="140.21,-214.8 23.79,-214.8 23.79,-178.8 140.21,-178.8 140.21,-214.8"/>
<text text-anchor="middle" x="82" y="-192.6" font-family="Times,serif" font-size="14.00">TableComponent </text>
</g>
<!-- SharedModule&#45;&gt;TableComponent  -->
<g id="edge2" class="edge">
<title>SharedModule&#45;&gt;TableComponent </title>
<path fill="none" stroke="black" stroke-dasharray="5,2" d="M82,-149.91C82,-149.91 82,-168.79 82,-168.79"/>
<polygon fill="black" stroke="black" points="78.5,-168.79 82,-178.79 85.5,-168.79 78.5,-168.79"/>
</g>
</g>
</svg>
