<?xml version="1.0" encoding="UTF-8" standalone="no"?>
<!DOCTYPE svg PUBLIC "-//W3C//DTD SVG 1.1//EN"
 "http://www.w3.org/Graphics/SVG/1.1/DTD/svg11.dtd">
<!-- Generated by graphviz version 2.47.3 (20210619.1520)
 -->
<!-- Title: dependencies Pages: 1 -->
<svg width="926pt" height="174pt"
 viewBox="0.00 0.00 926.00 173.80" xmlns="http://www.w3.org/2000/svg" xmlns:xlink="http://www.w3.org/1999/xlink">
<g id="graph0" class="graph" transform="scale(1 1) rotate(0) translate(4 169.8)">
<title>dependencies</title>
<polygon fill="white" stroke="transparent" points="-4,4 -4,-169.8 922,-169.8 922,4 -4,4"/>
<text text-anchor="middle" x="459" y="-8.2" font-family="sans-serif" font-size="14.00">dependencies</text>
<g id="clust1" class="cluster">
<title>cluster_HomeModule</title>
<polygon fill="none" stroke="black" stroke-dasharray="1,5" points="8,-32.8 8,-157.8 910,-157.8 910,-32.8 8,-32.8"/>
</g>
<g id="clust2" class="cluster">
<title>cluster_HomeModule_declarations</title>
<polygon fill="none" stroke="black" points="584,-40.8 584,-92.8 902,-92.8 902,-40.8 584,-40.8"/>
</g>
<g id="clust5" class="cluster">
<title>cluster_HomeModule_imports</title>
<polygon fill="none" stroke="black" points="188,-40.8 188,-92.8 576,-92.8 576,-40.8 188,-40.8"/>
</g>
<g id="clust8" class="cluster">
<title>cluster_HomeModule_providers</title>
<polygon fill="none" stroke="black" points="16,-40.8 16,-92.8 180,-92.8 180,-40.8 16,-40.8"/>
</g>
<!-- DriverStandingComponent -->
<g id="node1" class="node">
<title>DriverStandingComponent</title>
<polygon fill="#ffffb3" stroke="black" points="893.64,-84.8 726.36,-84.8 726.36,-48.8 893.64,-48.8 893.64,-84.8"/>
<text text-anchor="middle" x="810" y="-62.6" font-family="Times,serif" font-size="14.00">DriverStandingComponent</text>
</g>
<!-- HomeModule -->
<g id="node3" class="node">
<title>HomeModule</title>
<polygon fill="#8dd3c7" stroke="black" points="476.76,-149.8 473.76,-153.8 452.76,-153.8 449.76,-149.8 383.24,-149.8 383.24,-113.8 476.76,-113.8 476.76,-149.8"/>
<text text-anchor="middle" x="430" y="-127.6" font-family="Times,serif" font-size="14.00">HomeModule</text>
</g>
<!-- DriverStandingComponent&#45;&gt;HomeModule -->
<g id="edge1" class="edge">
<title>DriverStandingComponent&#45;&gt;HomeModule</title>
<path fill="none" stroke="black" d="M810,-85.08C810,-106.12 810,-137.8 810,-137.8 810,-137.8 486.98,-137.8 486.98,-137.8"/>
<polygon fill="black" stroke="black" points="486.98,-134.3 476.98,-137.8 486.98,-141.3 486.98,-134.3"/>
</g>
<!-- HomeComponent -->
<g id="node2" class="node">
<title>HomeComponent</title>
<polygon fill="#ffffb3" stroke="black" points="707.55,-84.8 592.45,-84.8 592.45,-48.8 707.55,-48.8 707.55,-84.8"/>
<text text-anchor="middle" x="650" y="-62.6" font-family="Times,serif" font-size="14.00">HomeComponent</text>
</g>
<!-- HomeComponent&#45;&gt;HomeModule -->
<g id="edge2" class="edge">
<title>HomeComponent&#45;&gt;HomeModule</title>
<path fill="none" stroke="black" d="M650,-84.82C650,-102.17 650,-125.8 650,-125.8 650,-125.8 486.93,-125.8 486.93,-125.8"/>
<polygon fill="black" stroke="black" points="486.93,-122.3 476.93,-125.8 486.93,-129.3 486.93,-122.3"/>
</g>
<!-- HomeRoutingModule -->
<g id="node4" class="node">
<title>HomeRoutingModule</title>
<polygon fill="#8dd3c7" stroke="black" points="568.38,-84.8 565.38,-88.8 544.38,-88.8 541.38,-84.8 429.62,-84.8 429.62,-48.8 568.38,-48.8 568.38,-84.8"/>
<text text-anchor="middle" x="499" y="-62.6" font-family="Times,serif" font-size="14.00">HomeRoutingModule</text>
</g>
<!-- HomeRoutingModule&#45;&gt;HomeModule -->
<g id="edge3" class="edge">
<title>HomeRoutingModule&#45;&gt;HomeModule</title>
<path fill="none" stroke="black" d="M453.22,-84.91C453.22,-84.91 453.22,-103.79 453.22,-103.79"/>
<polygon fill="black" stroke="black" points="449.72,-103.79 453.22,-113.79 456.72,-103.79 449.72,-103.79"/>
</g>
<!-- LayoutModule -->
<g id="node5" class="node">
<title>LayoutModule</title>
<polygon fill="#8dd3c7" stroke="black" points="411.71,-84.8 408.71,-88.8 387.71,-88.8 384.71,-84.8 312.29,-84.8 312.29,-48.8 411.71,-48.8 411.71,-84.8"/>
<text text-anchor="middle" x="362" y="-62.6" font-family="Times,serif" font-size="14.00">LayoutModule</text>
</g>
<!-- LayoutModule&#45;&gt;HomeModule -->
<g id="edge4" class="edge">
<title>LayoutModule&#45;&gt;HomeModule</title>
<path fill="none" stroke="black" d="M397.36,-84.91C397.36,-84.91 397.36,-103.79 397.36,-103.79"/>
<polygon fill="black" stroke="black" points="393.86,-103.79 397.36,-113.79 400.86,-103.79 393.86,-103.79"/>
</g>
<!-- SharedModule -->
<g id="node6" class="node">
<title>SharedModule</title>
<polygon fill="#8dd3c7" stroke="black" points="294.42,-84.8 291.42,-88.8 270.42,-88.8 267.42,-84.8 195.58,-84.8 195.58,-48.8 294.42,-48.8 294.42,-84.8"/>
<text text-anchor="middle" x="245" y="-62.6" font-family="Times,serif" font-size="14.00">SharedModule</text>
</g>
<!-- SharedModule&#45;&gt;HomeModule -->
<g id="edge5" class="edge">
<title>SharedModule&#45;&gt;HomeModule</title>
<path fill="none" stroke="black" d="M245,-84.82C245,-102.17 245,-125.8 245,-125.8 245,-125.8 372.84,-125.8 372.84,-125.8"/>
<polygon fill="black" stroke="black" points="372.84,-129.3 382.84,-125.8 372.84,-122.3 372.84,-129.3"/>
</g>
<!-- RaceApiService -->
<g id="node7" class="node">
<title>RaceApiService</title>
<ellipse fill="#fdb462" stroke="black" cx="98" cy="-66.8" rx="73.55" ry="18"/>
<text text-anchor="middle" x="98" y="-62.6" font-family="Times,serif" font-size="14.00">RaceApiService</text>
</g>
<!-- RaceApiService&#45;&gt;HomeModule -->
<g id="edge6" class="edge">
<title>RaceApiService&#45;&gt;HomeModule</title>
<path fill="none" stroke="black" d="M98,-85.08C98,-106.12 98,-137.8 98,-137.8 98,-137.8 373.14,-137.8 373.14,-137.8"/>
<polygon fill="black" stroke="black" points="373.14,-141.3 383.14,-137.8 373.14,-134.3 373.14,-141.3"/>
</g>
</g>
</svg>
