<?xml version="1.0" encoding="UTF-8" standalone="no"?>
<!DOCTYPE svg PUBLIC "-//W3C//DTD SVG 1.1//EN"
 "http://www.w3.org/Graphics/SVG/1.1/DTD/svg11.dtd">
<!-- Generated by graphviz version 2.47.3 (20210619.1520)
 -->
<!-- Title: dependencies Pages: 1 -->
<svg width="588pt" height="247pt"
 viewBox="0.00 0.00 588.00 246.80" xmlns="http://www.w3.org/2000/svg" xmlns:xlink="http://www.w3.org/1999/xlink">
<g id="graph0" class="graph" transform="scale(1 1) rotate(0) translate(4 242.8)">
<title>dependencies</title>
<polygon fill="white" stroke="transparent" points="-4,4 -4,-242.8 584,-242.8 584,4 -4,4"/>
<text text-anchor="middle" x="290" y="-8.2" font-family="sans-serif" font-size="14.00">dependencies</text>
<g id="clust1" class="cluster">
<title>cluster_AppModule</title>
<polygon fill="none" stroke="black" stroke-dasharray="1,5" points="8,-32.8 8,-230.8 572,-230.8 572,-32.8 8,-32.8"/>
</g>
<g id="clust2" class="cluster">
<title>cluster_AppModule_declarations</title>
<polygon fill="none" stroke="black" points="286,-40.8 286,-92.8 564,-92.8 564,-40.8 286,-40.8"/>
</g>
<g id="clust5" class="cluster">
<title>cluster_AppModule_imports</title>
<polygon fill="none" stroke="black" points="16,-40.8 16,-92.8 278,-92.8 278,-40.8 16,-40.8"/>
</g>
<g id="clust7" class="cluster">
<title>cluster_AppModule_bootstrap</title>
<polygon fill="none" stroke="black" points="222,-170.8 222,-222.8 346,-222.8 346,-170.8 222,-170.8"/>
</g>
<!-- AppComponent -->
<g id="node1" class="node">
<title>AppComponent</title>
<polygon fill="#ffffb3" stroke="black" points="555.94,-84.8 450.06,-84.8 450.06,-48.8 555.94,-48.8 555.94,-84.8"/>
<text text-anchor="middle" x="503" y="-62.6" font-family="Times,serif" font-size="14.00">AppComponent</text>
</g>
<!-- AppModule -->
<g id="node3" class="node">
<title>AppModule</title>
<polygon fill="#8dd3c7" stroke="black" points="325.66,-149.8 322.66,-153.8 301.66,-153.8 298.66,-149.8 242.34,-149.8 242.34,-113.8 325.66,-113.8 325.66,-149.8"/>
<text text-anchor="middle" x="284" y="-127.6" font-family="Times,serif" font-size="14.00">AppModule</text>
</g>
<!-- AppComponent&#45;&gt;AppModule -->
<g id="edge1" class="edge">
<title>AppComponent&#45;&gt;AppModule</title>
<path fill="none" stroke="black" d="M503,-84.91C503,-104.14 503,-131.8 503,-131.8 503,-131.8 335.71,-131.8 335.71,-131.8"/>
<polygon fill="black" stroke="black" points="335.71,-128.3 325.71,-131.8 335.71,-135.3 335.71,-128.3"/>
</g>
<!-- NotFoundComponent -->
<g id="node2" class="node">
<title>NotFoundComponent</title>
<polygon fill="#ffffb3" stroke="black" points="432.11,-84.8 293.89,-84.8 293.89,-48.8 432.11,-48.8 432.11,-84.8"/>
<text text-anchor="middle" x="363" y="-62.6" font-family="Times,serif" font-size="14.00">NotFoundComponent</text>
</g>
<!-- NotFoundComponent&#45;&gt;AppModule -->
<g id="edge2" class="edge">
<title>NotFoundComponent&#45;&gt;AppModule</title>
<path fill="none" stroke="black" d="M309.89,-84.91C309.89,-84.91 309.89,-103.79 309.89,-103.79"/>
<polygon fill="black" stroke="black" points="306.39,-103.79 309.89,-113.79 313.39,-103.79 306.39,-103.79"/>
</g>
<!-- AppComponent  -->
<g id="node6" class="node">
<title>AppComponent </title>
<polygon fill="#80b1d3" stroke="black" points="338.44,-214.8 229.56,-214.8 229.56,-178.8 338.44,-178.8 338.44,-214.8"/>
<text text-anchor="middle" x="284" y="-192.6" font-family="Times,serif" font-size="14.00">AppComponent </text>
</g>
<!-- AppModule&#45;&gt;AppComponent  -->
<g id="edge5" class="edge">
<title>AppModule&#45;&gt;AppComponent </title>
<path fill="none" stroke="black" stroke-dasharray="1,5" d="M284,-149.91C284,-149.91 284,-168.79 284,-168.79"/>
<polygon fill="black" stroke="black" points="280.5,-168.79 284,-178.79 287.5,-168.79 280.5,-168.79"/>
</g>
<!-- AppRoutingModule -->
<g id="node4" class="node">
<title>AppRoutingModule</title>
<polygon fill="#8dd3c7" stroke="black" points="270.27,-84.8 267.27,-88.8 246.27,-88.8 243.27,-84.8 141.73,-84.8 141.73,-48.8 270.27,-48.8 270.27,-84.8"/>
<text text-anchor="middle" x="206" y="-62.6" font-family="Times,serif" font-size="14.00">AppRoutingModule</text>
</g>
<!-- AppRoutingModule&#45;&gt;AppModule -->
<g id="edge3" class="edge">
<title>AppRoutingModule&#45;&gt;AppModule</title>
<path fill="none" stroke="black" d="M256.28,-84.91C256.28,-84.91 256.28,-103.79 256.28,-103.79"/>
<polygon fill="black" stroke="black" points="252.78,-103.79 256.28,-113.79 259.78,-103.79 252.78,-103.79"/>
</g>
<!-- LayoutModule -->
<g id="node5" class="node">
<title>LayoutModule</title>
<polygon fill="#8dd3c7" stroke="black" points="123.71,-84.8 120.71,-88.8 99.71,-88.8 96.71,-84.8 24.29,-84.8 24.29,-48.8 123.71,-48.8 123.71,-84.8"/>
<text text-anchor="middle" x="74" y="-62.6" font-family="Times,serif" font-size="14.00">LayoutModule</text>
</g>
<!-- LayoutModule&#45;&gt;AppModule -->
<g id="edge4" class="edge">
<title>LayoutModule&#45;&gt;AppModule</title>
<path fill="none" stroke="black" d="M74,-84.91C74,-104.14 74,-131.8 74,-131.8 74,-131.8 232.26,-131.8 232.26,-131.8"/>
<polygon fill="black" stroke="black" points="232.26,-135.3 242.26,-131.8 232.26,-128.3 232.26,-135.3"/>
</g>
</g>
</svg>
