<?xml version="1.0" encoding="UTF-8" standalone="no"?>
<!DOCTYPE svg PUBLIC "-//W3C//DTD SVG 1.1//EN"
 "http://www.w3.org/Graphics/SVG/1.1/DTD/svg11.dtd">
<!-- Generated by graphviz version 2.47.3 (20210619.1520)
 -->
<!-- Title: dependencies Pages: 1 -->
<svg width="388pt" height="247pt"
 viewBox="0.00 0.00 388.00 246.80" xmlns="http://www.w3.org/2000/svg" xmlns:xlink="http://www.w3.org/1999/xlink">
<g id="graph0" class="graph" transform="scale(1 1) rotate(0) translate(4 242.8)">
<title>dependencies</title>
<polygon fill="white" stroke="transparent" points="-4,4 -4,-242.8 384,-242.8 384,4 -4,4"/>
<text text-anchor="middle" x="190" y="-8.2" font-family="sans-serif" font-size="14.00">dependencies</text>
<g id="clust1" class="cluster">
<title>cluster_LayoutModule</title>
<polygon fill="none" stroke="black" stroke-dasharray="1,5" points="8,-32.8 8,-230.8 372,-230.8 372,-32.8 8,-32.8"/>
</g>
<g id="clust6" class="cluster">
<title>cluster_LayoutModule_exports</title>
<polygon fill="none" stroke="black" points="16,-170.8 16,-222.8 364,-222.8 364,-170.8 16,-170.8"/>
</g>
<g id="clust2" class="cluster">
<title>cluster_LayoutModule_declarations</title>
<polygon fill="none" stroke="black" points="20,-40.8 20,-92.8 360,-92.8 360,-40.8 20,-40.8"/>
</g>
<!-- NavbarComponent -->
<g id="node1" class="node">
<title>NavbarComponent</title>
<polygon fill="#ffffb3" stroke="black" points="352.03,-84.8 229.97,-84.8 229.97,-48.8 352.03,-48.8 352.03,-84.8"/>
<text text-anchor="middle" x="291" y="-62.6" font-family="Times,serif" font-size="14.00">NavbarComponent</text>
</g>
<!-- LayoutModule -->
<g id="node3" class="node">
<title>LayoutModule</title>
<polygon fill="#8dd3c7" stroke="black" points="170.71,-149.8 167.71,-153.8 146.71,-153.8 143.71,-149.8 71.29,-149.8 71.29,-113.8 170.71,-113.8 170.71,-149.8"/>
<text text-anchor="middle" x="121" y="-127.6" font-family="Times,serif" font-size="14.00">LayoutModule</text>
</g>
<!-- NavbarComponent&#45;&gt;LayoutModule -->
<g id="edge1" class="edge">
<title>NavbarComponent&#45;&gt;LayoutModule</title>
<path fill="none" stroke="black" d="M311.5,-84.82C311.5,-102.17 311.5,-125.8 311.5,-125.8 311.5,-125.8 181.05,-125.8 181.05,-125.8"/>
<polygon fill="black" stroke="black" points="181.05,-122.3 171.05,-125.8 181.05,-129.3 181.05,-122.3"/>
</g>
<!-- SeasonDropDownComponent -->
<g id="node2" class="node">
<title>SeasonDropDownComponent</title>
<polygon fill="#ffffb3" stroke="black" points="211.97,-84.8 28.03,-84.8 28.03,-48.8 211.97,-48.8 211.97,-84.8"/>
<text text-anchor="middle" x="120" y="-62.6" font-family="Times,serif" font-size="14.00">SeasonDropDownComponent</text>
</g>
<!-- SeasonDropDownComponent&#45;&gt;LayoutModule -->
<g id="edge2" class="edge">
<title>SeasonDropDownComponent&#45;&gt;LayoutModule</title>
<path fill="none" stroke="black" d="M121,-84.91C121,-84.91 121,-103.79 121,-103.79"/>
<polygon fill="black" stroke="black" points="117.5,-103.79 121,-113.79 124.5,-103.79 117.5,-103.79"/>
</g>
<!-- NavbarComponent  -->
<g id="node4" class="node">
<title>NavbarComponent </title>
<polygon fill="#fb8072" stroke="black" points="356.03,-214.8 229.97,-214.8 229.97,-178.8 356.03,-178.8 356.03,-214.8"/>
<text text-anchor="middle" x="293" y="-192.6" font-family="Times,serif" font-size="14.00">NavbarComponent </text>
</g>
<!-- LayoutModule&#45;&gt;NavbarComponent  -->
<g id="edge3" class="edge">
<title>LayoutModule&#45;&gt;NavbarComponent </title>
<path fill="none" stroke="black" stroke-dasharray="5,2" d="M170.86,-137.8C214.42,-137.8 270.75,-137.8 270.75,-137.8 270.75,-137.8 270.75,-168.78 270.75,-168.78"/>
<polygon fill="black" stroke="black" points="267.25,-168.78 270.75,-178.78 274.25,-168.78 267.25,-168.78"/>
</g>
<!-- SeasonDropDownComponent  -->
<g id="node5" class="node">
<title>SeasonDropDownComponent </title>
<polygon fill="#fb8072" stroke="black" points="211.97,-214.8 24.03,-214.8 24.03,-178.8 211.97,-178.8 211.97,-214.8"/>
<text text-anchor="middle" x="118" y="-192.6" font-family="Times,serif" font-size="14.00">SeasonDropDownComponent </text>
</g>
<!-- LayoutModule&#45;&gt;SeasonDropDownComponent  -->
<g id="edge4" class="edge">
<title>LayoutModule&#45;&gt;SeasonDropDownComponent </title>
<path fill="none" stroke="black" stroke-dasharray="5,2" d="M121,-149.91C121,-149.91 121,-168.79 121,-168.79"/>
<polygon fill="black" stroke="black" points="117.5,-168.79 121,-178.79 124.5,-168.79 117.5,-168.79"/>
</g>
</g>
</svg>
