<?xml version="1.0" encoding="UTF-8" standalone="no"?>
<!DOCTYPE svg PUBLIC "-//W3C//DTD SVG 1.1//EN"
 "http://www.w3.org/Graphics/SVG/1.1/DTD/svg11.dtd">
<!-- Generated by graphviz version 2.47.3 (20210619.1520)
 -->
<!-- Title: dependencies Pages: 1 -->
<svg width="2705pt" height="253pt"
 viewBox="0.00 0.00 2705.00 252.80" xmlns="http://www.w3.org/2000/svg" xmlns:xlink="http://www.w3.org/1999/xlink">
<g id="graph0" class="graph" transform="scale(1 1) rotate(0) translate(4 248.8)">
<title>dependencies</title>
<polygon fill="white" stroke="transparent" points="-4,4 -4,-248.8 2701,-248.8 2701,4 -4,4"/>
<text text-anchor="middle" x="1348.5" y="-8.2" font-family="sans-serif" font-size="14.00">dependencies</text>
<g id="clust1" class="cluster">
<title>cluster_AboutModule</title>
<polygon fill="none" stroke="black" stroke-dasharray="1,5" points="8,-32.8 8,-160.8 156,-160.8 156,-32.8 8,-32.8"/>
</g>
<g id="clust2" class="cluster">
<title>cluster_AboutModule_declarations</title>
<polygon fill="none" stroke="black" points="16,-40.8 16,-92.8 148,-92.8 148,-40.8 16,-40.8"/>
</g>
<g id="clust8" class="cluster">
<title>cluster_AppModule</title>
<polygon fill="none" stroke="black" stroke-dasharray="1,5" points="164,-32.8 164,-236.8 728,-236.8 728,-32.8 164,-32.8"/>
</g>
<g id="clust9" class="cluster">
<title>cluster_AppModule_declarations</title>
<polygon fill="none" stroke="black" points="172,-40.8 172,-92.8 450,-92.8 450,-40.8 172,-40.8"/>
</g>
<g id="clust12" class="cluster">
<title>cluster_AppModule_imports</title>
<polygon fill="none" stroke="black" points="458,-40.8 458,-92.8 720,-92.8 720,-40.8 458,-40.8"/>
</g>
<g id="clust14" class="cluster">
<title>cluster_AppModule_bootstrap</title>
<polygon fill="none" stroke="black" points="397,-176.8 397,-228.8 521,-228.8 521,-176.8 397,-176.8"/>
</g>
<g id="clust22" class="cluster">
<title>cluster_HomeModule</title>
<polygon fill="none" stroke="black" stroke-dasharray="1,5" points="1456,-32.8 1456,-160.8 2241,-160.8 2241,-32.8 1456,-32.8"/>
</g>
<g id="clust23" class="cluster">
<title>cluster_HomeModule_declarations</title>
<polygon fill="none" stroke="black" points="1636,-40.8 1636,-92.8 1954,-92.8 1954,-40.8 1636,-40.8"/>
</g>
<g id="clust26" class="cluster">
<title>cluster_HomeModule_imports</title>
<polygon fill="none" stroke="black" points="1962,-40.8 1962,-92.8 2233,-92.8 2233,-40.8 1962,-40.8"/>
</g>
<g id="clust29" class="cluster">
<title>cluster_HomeModule_providers</title>
<polygon fill="none" stroke="black" points="1464,-40.8 1464,-92.8 1628,-92.8 1628,-40.8 1464,-40.8"/>
</g>
<g id="clust36" class="cluster">
<title>cluster_LayoutModule</title>
<polygon fill="none" stroke="black" stroke-dasharray="1,5" points="736,-100.8 736,-168.8 1448,-168.8 1448,-100.8 736,-100.8"/>
</g>
<g id="clust37" class="cluster">
<title>cluster_LayoutModule_declarations</title>
<polygon fill="none" stroke="black" points="1100,-108.8 1100,-160.8 1440,-160.8 1440,-108.8 1100,-108.8"/>
</g>
<g id="clust41" class="cluster">
<title>cluster_LayoutModule_exports</title>
<polygon fill="none" stroke="black" points="744,-108.8 744,-160.8 1092,-160.8 1092,-108.8 744,-108.8"/>
</g>
<g id="clust44" class="cluster">
<title>cluster_PipesModule</title>
<polygon fill="none" stroke="black" stroke-dasharray="1,5" points="2543,-32.8 2543,-236.8 2689,-236.8 2689,-32.8 2543,-32.8"/>
</g>
<g id="clust45" class="cluster">
<title>cluster_PipesModule_declarations</title>
<polygon fill="none" stroke="black" points="2553,-40.8 2553,-92.8 2679,-92.8 2679,-40.8 2553,-40.8"/>
</g>
<g id="clust48" class="cluster">
<title>cluster_PipesModule_exports</title>
<polygon fill="none" stroke="black" points="2551,-176.8 2551,-228.8 2681,-228.8 2681,-176.8 2551,-176.8"/>
</g>
<g id="clust51" class="cluster">
<title>cluster_SharedModule</title>
<polygon fill="none" stroke="black" stroke-dasharray="1,5" points="2249,-100.8 2249,-168.8 2535,-168.8 2535,-100.8 2249,-100.8"/>
</g>
<g id="clust52" class="cluster">
<title>cluster_SharedModule_declarations</title>
<polygon fill="none" stroke="black" points="2397,-108.8 2397,-160.8 2527,-160.8 2527,-108.8 2397,-108.8"/>
</g>
<g id="clust55" class="cluster">
<title>cluster_SharedModule_exports</title>
<polygon fill="none" stroke="black" points="2257,-108.8 2257,-160.8 2389,-160.8 2389,-108.8 2257,-108.8"/>
</g>
<!-- AboutComponent -->
<g id="node1" class="node">
<title>AboutComponent</title>
<polygon fill="#ffffb3" stroke="black" points="140.33,-84.8 23.67,-84.8 23.67,-48.8 140.33,-48.8 140.33,-84.8"/>
<text text-anchor="middle" x="82" y="-62.6" font-family="Times,serif" font-size="14.00">AboutComponent</text>
</g>
<!-- AboutModule -->
<g id="node2" class="node">
<title>AboutModule</title>
<polygon fill="#8dd3c7" stroke="black" points="129.05,-152.8 126.05,-156.8 105.05,-156.8 102.05,-152.8 34.95,-152.8 34.95,-116.8 129.05,-116.8 129.05,-152.8"/>
<text text-anchor="middle" x="82" y="-130.6" font-family="Times,serif" font-size="14.00">AboutModule</text>
</g>
<!-- AboutComponent&#45;&gt;AboutModule -->
<g id="edge1" class="edge">
<title>AboutComponent&#45;&gt;AboutModule</title>
<path fill="none" stroke="black" d="M82,-85.02C82,-85.02 82,-106.53 82,-106.53"/>
<polygon fill="black" stroke="black" points="78.5,-106.53 82,-116.53 85.5,-106.53 78.5,-106.53"/>
</g>
<!-- AppComponent -->
<g id="node3" class="node">
<title>AppComponent</title>
<polygon fill="#ffffb3" stroke="black" points="441.94,-84.8 336.06,-84.8 336.06,-48.8 441.94,-48.8 441.94,-84.8"/>
<text text-anchor="middle" x="389" y="-62.6" font-family="Times,serif" font-size="14.00">AppComponent</text>
</g>
<!-- AppModule -->
<g id="node5" class="node">
<title>AppModule</title>
<polygon fill="#8dd3c7" stroke="black" points="500.66,-152.8 497.66,-156.8 476.66,-156.8 473.66,-152.8 417.34,-152.8 417.34,-116.8 500.66,-116.8 500.66,-152.8"/>
<text text-anchor="middle" x="459" y="-130.6" font-family="Times,serif" font-size="14.00">AppModule</text>
</g>
<!-- AppComponent&#45;&gt;AppModule -->
<g id="edge2" class="edge">
<title>AppComponent&#45;&gt;AppModule</title>
<path fill="none" stroke="black" d="M429.45,-85.02C429.45,-85.02 429.45,-106.53 429.45,-106.53"/>
<polygon fill="black" stroke="black" points="425.95,-106.53 429.45,-116.53 432.95,-106.53 425.95,-106.53"/>
</g>
<!-- NotFoundComponent -->
<g id="node4" class="node">
<title>NotFoundComponent</title>
<polygon fill="#ffffb3" stroke="black" points="318.11,-84.8 179.89,-84.8 179.89,-48.8 318.11,-48.8 318.11,-84.8"/>
<text text-anchor="middle" x="249" y="-62.6" font-family="Times,serif" font-size="14.00">NotFoundComponent</text>
</g>
<!-- NotFoundComponent&#45;&gt;AppModule -->
<g id="edge3" class="edge">
<title>NotFoundComponent&#45;&gt;AppModule</title>
<path fill="none" stroke="black" d="M249,-85.02C249,-105.17 249,-134.8 249,-134.8 249,-134.8 407.26,-134.8 407.26,-134.8"/>
<polygon fill="black" stroke="black" points="407.26,-138.3 417.26,-134.8 407.26,-131.3 407.26,-138.3"/>
</g>
<!-- AppComponent  -->
<g id="node8" class="node">
<title>AppComponent </title>
<polygon fill="#80b1d3" stroke="black" points="513.44,-220.8 404.56,-220.8 404.56,-184.8 513.44,-184.8 513.44,-220.8"/>
<text text-anchor="middle" x="459" y="-198.6" font-family="Times,serif" font-size="14.00">AppComponent </text>
</g>
<!-- AppModule&#45;&gt;AppComponent  -->
<g id="edge6" class="edge">
<title>AppModule&#45;&gt;AppComponent </title>
<path fill="none" stroke="black" stroke-dasharray="1,5" d="M459,-153.02C459,-153.02 459,-174.53 459,-174.53"/>
<polygon fill="black" stroke="black" points="455.5,-174.53 459,-184.53 462.5,-174.53 455.5,-174.53"/>
</g>
<!-- AppRoutingModule -->
<g id="node6" class="node">
<title>AppRoutingModule</title>
<polygon fill="#8dd3c7" stroke="black" points="594.27,-84.8 591.27,-88.8 570.27,-88.8 567.27,-84.8 465.73,-84.8 465.73,-48.8 594.27,-48.8 594.27,-84.8"/>
<text text-anchor="middle" x="530" y="-62.6" font-family="Times,serif" font-size="14.00">AppRoutingModule</text>
</g>
<!-- AppRoutingModule&#45;&gt;AppModule -->
<g id="edge4" class="edge">
<title>AppRoutingModule&#45;&gt;AppModule</title>
<path fill="none" stroke="black" d="M483.22,-85.02C483.22,-85.02 483.22,-106.53 483.22,-106.53"/>
<polygon fill="black" stroke="black" points="479.72,-106.53 483.22,-116.53 486.72,-106.53 479.72,-106.53"/>
</g>
<!-- LayoutModule -->
<g id="node7" class="node">
<title>LayoutModule</title>
<polygon fill="#8dd3c7" stroke="black" points="711.71,-84.8 708.71,-88.8 687.71,-88.8 684.71,-84.8 612.29,-84.8 612.29,-48.8 711.71,-48.8 711.71,-84.8"/>
<text text-anchor="middle" x="662" y="-62.6" font-family="Times,serif" font-size="14.00">LayoutModule</text>
</g>
<!-- LayoutModule&#45;&gt;AppModule -->
<g id="edge5" class="edge">
<title>LayoutModule&#45;&gt;AppModule</title>
<path fill="none" stroke="black" d="M645.47,-85.07C645.47,-103.36 645.47,-128.8 645.47,-128.8 645.47,-128.8 510.85,-128.8 510.85,-128.8"/>
<polygon fill="black" stroke="black" points="510.85,-125.3 500.85,-128.8 510.85,-132.3 510.85,-125.3"/>
</g>
<!-- HomeModule -->
<g id="node11" class="node">
<title>HomeModule</title>
<polygon fill="#8dd3c7" stroke="black" points="1828.76,-152.8 1825.76,-156.8 1804.76,-156.8 1801.76,-152.8 1735.24,-152.8 1735.24,-116.8 1828.76,-116.8 1828.76,-152.8"/>
<text text-anchor="middle" x="1782" y="-130.6" font-family="Times,serif" font-size="14.00">HomeModule</text>
</g>
<!-- LayoutModule&#45;&gt;HomeModule -->
<g id="edge10" class="edge">
<title>LayoutModule&#45;&gt;HomeModule</title>
<path fill="none" stroke="black" d="M711.73,-56.8C885.09,-56.8 1452.24,-56.8 1452.24,-56.8 1452.24,-56.8 1452.24,-140.8 1452.24,-140.8 1452.24,-140.8 1725.1,-140.8 1725.1,-140.8"/>
<polygon fill="black" stroke="black" points="1725.1,-144.3 1735.1,-140.8 1725.1,-137.3 1725.1,-144.3"/>
</g>
<!-- NavbarComponent  -->
<g id="node17" class="node">
<title>NavbarComponent </title>
<polygon fill="#fb8072" stroke="black" points="1084.03,-152.8 957.97,-152.8 957.97,-116.8 1084.03,-116.8 1084.03,-152.8"/>
<text text-anchor="middle" x="1021" y="-130.6" font-family="Times,serif" font-size="14.00">NavbarComponent </text>
</g>
<!-- LayoutModule&#45;&gt;NavbarComponent  -->
<g id="edge15" class="edge">
<title>LayoutModule&#45;&gt;NavbarComponent </title>
<path fill="none" stroke="black" stroke-dasharray="5,2" d="M711.92,-77.8C810.56,-77.8 1021,-77.8 1021,-77.8 1021,-77.8 1021,-106.76 1021,-106.76"/>
<polygon fill="black" stroke="black" points="1017.5,-106.76 1021,-116.76 1024.5,-106.76 1017.5,-106.76"/>
</g>
<!-- SeasonDropDownComponent  -->
<g id="node18" class="node">
<title>SeasonDropDownComponent </title>
<polygon fill="#fb8072" stroke="black" points="939.97,-152.8 752.03,-152.8 752.03,-116.8 939.97,-116.8 939.97,-152.8"/>
<text text-anchor="middle" x="846" y="-130.6" font-family="Times,serif" font-size="14.00">SeasonDropDownComponent </text>
</g>
<!-- LayoutModule&#45;&gt;SeasonDropDownComponent  -->
<g id="edge16" class="edge">
<title>LayoutModule&#45;&gt;SeasonDropDownComponent </title>
<path fill="none" stroke="black" stroke-dasharray="5,2" d="M678.53,-85.09C678.53,-107.01 678.53,-140.8 678.53,-140.8 678.53,-140.8 741.99,-140.8 741.99,-140.8"/>
<polygon fill="black" stroke="black" points="741.99,-144.3 751.99,-140.8 741.99,-137.3 741.99,-144.3"/>
</g>
<!-- DriverStandingComponent -->
<g id="node9" class="node">
<title>DriverStandingComponent</title>
<polygon fill="#ffffb3" stroke="black" points="1945.64,-84.8 1778.36,-84.8 1778.36,-48.8 1945.64,-48.8 1945.64,-84.8"/>
<text text-anchor="middle" x="1862" y="-62.6" font-family="Times,serif" font-size="14.00">DriverStandingComponent</text>
</g>
<!-- DriverStandingComponent&#45;&gt;HomeModule -->
<g id="edge7" class="edge">
<title>DriverStandingComponent&#45;&gt;HomeModule</title>
<path fill="none" stroke="black" d="M1803.53,-85.02C1803.53,-85.02 1803.53,-106.53 1803.53,-106.53"/>
<polygon fill="black" stroke="black" points="1800.03,-106.53 1803.53,-116.53 1807.03,-106.53 1800.03,-106.53"/>
</g>
<!-- HomeComponent -->
<g id="node10" class="node">
<title>HomeComponent</title>
<polygon fill="#ffffb3" stroke="black" points="1759.55,-84.8 1644.45,-84.8 1644.45,-48.8 1759.55,-48.8 1759.55,-84.8"/>
<text text-anchor="middle" x="1702" y="-62.6" font-family="Times,serif" font-size="14.00">HomeComponent</text>
</g>
<!-- HomeComponent&#45;&gt;HomeModule -->
<g id="edge8" class="edge">
<title>HomeComponent&#45;&gt;HomeModule</title>
<path fill="none" stroke="black" d="M1747.45,-85.02C1747.45,-85.02 1747.45,-106.53 1747.45,-106.53"/>
<polygon fill="black" stroke="black" points="1743.95,-106.53 1747.45,-116.53 1750.95,-106.53 1743.95,-106.53"/>
</g>
<!-- HomeRoutingModule -->
<g id="node12" class="node">
<title>HomeRoutingModule</title>
<polygon fill="#8dd3c7" stroke="black" points="2108.38,-84.8 2105.38,-88.8 2084.38,-88.8 2081.38,-84.8 1969.62,-84.8 1969.62,-48.8 2108.38,-48.8 2108.38,-84.8"/>
<text text-anchor="middle" x="2039" y="-62.6" font-family="Times,serif" font-size="14.00">HomeRoutingModule</text>
</g>
<!-- HomeRoutingModule&#45;&gt;HomeModule -->
<g id="edge9" class="edge">
<title>HomeRoutingModule&#45;&gt;HomeModule</title>
<path fill="none" stroke="black" d="M2039,-84.82C2039,-102.17 2039,-125.8 2039,-125.8 2039,-125.8 1838.84,-125.8 1838.84,-125.8"/>
<polygon fill="black" stroke="black" points="1838.84,-122.3 1828.84,-125.8 1838.84,-129.3 1838.84,-122.3"/>
</g>
<!-- SharedModule -->
<g id="node13" class="node">
<title>SharedModule</title>
<polygon fill="#8dd3c7" stroke="black" points="2225.42,-84.8 2222.42,-88.8 2201.42,-88.8 2198.42,-84.8 2126.58,-84.8 2126.58,-48.8 2225.42,-48.8 2225.42,-84.8"/>
<text text-anchor="middle" x="2176" y="-62.6" font-family="Times,serif" font-size="14.00">SharedModule</text>
</g>
<!-- SharedModule&#45;&gt;HomeModule -->
<g id="edge11" class="edge">
<title>SharedModule&#45;&gt;HomeModule</title>
<path fill="none" stroke="black" d="M2159.6,-85.02C2159.6,-105.17 2159.6,-134.8 2159.6,-134.8 2159.6,-134.8 1839.06,-134.8 1839.06,-134.8"/>
<polygon fill="black" stroke="black" points="1839.06,-131.3 1829.06,-134.8 1839.06,-138.3 1839.06,-131.3"/>
</g>
<!-- TableComponent  -->
<g id="node23" class="node">
<title>TableComponent </title>
<polygon fill="#fb8072" stroke="black" points="2381.21,-152.8 2264.79,-152.8 2264.79,-116.8 2381.21,-116.8 2381.21,-152.8"/>
<text text-anchor="middle" x="2323" y="-130.6" font-family="Times,serif" font-size="14.00">TableComponent </text>
</g>
<!-- SharedModule&#45;&gt;TableComponent  -->
<g id="edge20" class="edge">
<title>SharedModule&#45;&gt;TableComponent </title>
<path fill="none" stroke="black" stroke-dasharray="5,2" d="M2192.4,-85.05C2192.4,-107.82 2192.4,-143.8 2192.4,-143.8 2192.4,-143.8 2254.58,-143.8 2254.58,-143.8"/>
<polygon fill="black" stroke="black" points="2254.58,-147.3 2264.58,-143.8 2254.58,-140.3 2254.58,-147.3"/>
</g>
<!-- RaceApiService -->
<g id="node14" class="node">
<title>RaceApiService</title>
<ellipse fill="#fdb462" stroke="black" cx="1546" cy="-66.8" rx="73.55" ry="18"/>
<text text-anchor="middle" x="1546" y="-62.6" font-family="Times,serif" font-size="14.00">RaceApiService</text>
</g>
<!-- RaceApiService&#45;&gt;HomeModule -->
<g id="edge12" class="edge">
<title>RaceApiService&#45;&gt;HomeModule</title>
<path fill="none" stroke="black" d="M1546,-85.07C1546,-103.36 1546,-128.8 1546,-128.8 1546,-128.8 1725.09,-128.8 1725.09,-128.8"/>
<polygon fill="black" stroke="black" points="1725.09,-132.3 1735.09,-128.8 1725.09,-125.3 1725.09,-132.3"/>
</g>
<!-- NavbarComponent -->
<g id="node15" class="node">
<title>NavbarComponent</title>
<polygon fill="#ffffb3" stroke="black" points="1432.03,-152.8 1309.97,-152.8 1309.97,-116.8 1432.03,-116.8 1432.03,-152.8"/>
<text text-anchor="middle" x="1371" y="-130.6" font-family="Times,serif" font-size="14.00">NavbarComponent</text>
</g>
<!-- NavbarComponent&#45;&gt;LayoutModule -->
<g id="edge13" class="edge">
<title>NavbarComponent&#45;&gt;LayoutModule</title>
<path fill="none" stroke="black" d="M1371,-116.52C1371,-95.48 1371,-63.8 1371,-63.8 1371,-63.8 721.86,-63.8 721.86,-63.8"/>
<polygon fill="black" stroke="black" points="721.86,-60.3 711.86,-63.8 721.86,-67.3 721.86,-60.3"/>
</g>
<!-- SeasonDropDownComponent -->
<g id="node16" class="node">
<title>SeasonDropDownComponent</title>
<polygon fill="#ffffb3" stroke="black" points="1291.97,-152.8 1108.03,-152.8 1108.03,-116.8 1291.97,-116.8 1291.97,-152.8"/>
<text text-anchor="middle" x="1200" y="-130.6" font-family="Times,serif" font-size="14.00">SeasonDropDownComponent</text>
</g>
<!-- SeasonDropDownComponent&#45;&gt;LayoutModule -->
<g id="edge14" class="edge">
<title>SeasonDropDownComponent&#45;&gt;LayoutModule</title>
<path fill="none" stroke="black" d="M1200,-116.63C1200,-97.71 1200,-70.8 1200,-70.8 1200,-70.8 721.65,-70.8 721.65,-70.8"/>
<polygon fill="black" stroke="black" points="721.65,-67.3 711.65,-70.8 721.65,-74.3 721.65,-67.3"/>
</g>
<!-- SeasonFilterPipe -->
<g id="node19" class="node">
<title>SeasonFilterPipe</title>
<polygon fill="#ffffb3" stroke="black" points="2671.37,-84.8 2560.63,-84.8 2560.63,-48.8 2671.37,-48.8 2671.37,-84.8"/>
<text text-anchor="middle" x="2616" y="-62.6" font-family="Times,serif" font-size="14.00">SeasonFilterPipe</text>
</g>
<!-- PipesModule -->
<g id="node20" class="node">
<title>PipesModule</title>
<polygon fill="#8dd3c7" stroke="black" points="2660.88,-152.8 2657.88,-156.8 2636.88,-156.8 2633.88,-152.8 2571.12,-152.8 2571.12,-116.8 2660.88,-116.8 2660.88,-152.8"/>
<text text-anchor="middle" x="2616" y="-130.6" font-family="Times,serif" font-size="14.00">PipesModule</text>
</g>
<!-- SeasonFilterPipe&#45;&gt;PipesModule -->
<g id="edge17" class="edge">
<title>SeasonFilterPipe&#45;&gt;PipesModule</title>
<path fill="none" stroke="black" d="M2616,-85.02C2616,-85.02 2616,-106.53 2616,-106.53"/>
<polygon fill="black" stroke="black" points="2612.5,-106.53 2616,-116.53 2619.5,-106.53 2612.5,-106.53"/>
</g>
<!-- SeasonFilterPipe  -->
<g id="node21" class="node">
<title>SeasonFilterPipe </title>
<polygon fill="#fb8072" stroke="black" points="2673.37,-220.8 2558.63,-220.8 2558.63,-184.8 2673.37,-184.8 2673.37,-220.8"/>
<text text-anchor="middle" x="2616" y="-198.6" font-family="Times,serif" font-size="14.00">SeasonFilterPipe </text>
</g>
<!-- PipesModule&#45;&gt;SeasonFilterPipe  -->
<g id="edge18" class="edge">
<title>PipesModule&#45;&gt;SeasonFilterPipe </title>
<path fill="none" stroke="black" stroke-dasharray="5,2" d="M2616,-153.02C2616,-153.02 2616,-174.53 2616,-174.53"/>
<polygon fill="black" stroke="black" points="2612.5,-174.53 2616,-184.53 2619.5,-174.53 2612.5,-174.53"/>
</g>
<!-- TableComponent -->
<g id="node22" class="node">
<title>TableComponent</title>
<polygon fill="#ffffb3" stroke="black" points="2518.7,-152.8 2405.3,-152.8 2405.3,-116.8 2518.7,-116.8 2518.7,-152.8"/>
<text text-anchor="middle" x="2462" y="-130.6" font-family="Times,serif" font-size="14.00">TableComponent</text>
</g>
<!-- TableComponent&#45;&gt;SharedModule -->
<g id="edge19" class="edge">
<title>TableComponent&#45;&gt;SharedModule</title>
<path fill="none" stroke="black" d="M2462,-116.58C2462,-96.43 2462,-66.8 2462,-66.8 2462,-66.8 2235.49,-66.8 2235.49,-66.8"/>
<polygon fill="black" stroke="black" points="2235.49,-63.3 2225.49,-66.8 2235.49,-70.3 2235.49,-63.3"/>
</g>
</g>
</svg>
